<?xml version="1.0" encoding="utf-8"?>
<!-- Generator: Adobe Illustrator 20.0.0, SVG Export Plug-In . SVG Version: 6.00 Build 0)  -->
<svg version="1.1" id="Layer_1" xmlns="http://www.w3.org/2000/svg" xmlns:xlink="http://www.w3.org/1999/xlink" x="0px" y="0px"
	 viewBox="0 0 388 128.4" style="enable-background:new 0 0 388 128.4;" xml:space="preserve">
<style type="text/css">
	.st0{fill:#D7948B;}
	.st1{fill:#864042;}
</style>
<g>
	<path class="st0" d="M82,76.2c0.1,1.1-1.2,1.9-2.1,2.1c-1,0.3-2.1-0.3-3-0.2c-0.5,0.2-0.4,0.4-0.8,0.5c-0.7,0.2-1.5,0.2-2.2,0.2
		c-1,0-3.1-0.5-4,0c-0.2,0.1-0.3,0.2-0.5,0.5l0.2-0.5c-0.5,0.1-1.2,2.1-1.7,3.5l0.8-1.7l-1.1,2.9c-0.8,1.6-1.4,3.3-2.1,4.9
		c-1.4,3.2-2.6,6.3-3.8,9.6c-2.1,5.9-4.1,12.2-5.5,18.3c-0.2,1.1-1.5,5.5-0.1,6.1c0.2,0.2,1.8-0.8,1.7-0.7c0.4-0.4,0.8-0.8,1.2-1.2
		c-0.3,0.2-1.1,0.9-1.1,0.8c-0.1-0.5,1.8-2,2.1-2.4c0.8-0.8,1.4-1.6,2.1-2.4l4.4-5.4c2.7-3.4,5.3-6.9,8.1-10.3c0.6-0.8,2-3.4,3-3.6
		c1.2-0.2,1.4,1,1.1,2c-0.7,2.1-2.7,3.7-3.8,5.5c-1.9,3.2-4.2,6.2-6.4,9.2c-2.4,3.3-4.9,6.5-7.5,9.6c-1.2,1.5-2.8,3.6-4.7,4.6
		c-1.4,0.7-3.3-0.2-4.6-1.1c-1.4-0.9-2.1-2.3-2.4-3.8c-0.1-0.5-0.5-2.9-0.1-3.4v1.1l0.2-1.5c-0.2,0.3-0.2-0.7-0.2-0.8
		c0-0.6,0.2-1.3,0.3-1.9c0.2-1.2,0.5-2.4,0.8-3.6c0.5-2.4,1.1-4.7,1.6-7.1c0.4-2.4,1.2-4.7,2-7c0.2-0.4,1.7-5,2.1-5
		c0.1,0-0.2,0.9-0.2,1c0.3-1.1,0.8-2.3,1.1-3.4c-0.2,0.4-0.4,0.8-0.4,0.6c0-0.9,1-2.5,1.3-3.3l0.9-2.7c0.8-2.4,1.7-4.9,2.7-7.1
		c-2.1,0.2-4.2,0-6.2,0.4c-2.9,0.5-6.5,0.2-9.4-0.2c-0.4-0.1-2.2-0.2-1.7-1c0.2-0.2,1.8-0.6,2.1-0.7c1.4-0.5,3-0.5,4.5-0.6
		c3-0.3,5.9-0.2,8.8-0.5c0.8-0.1,2.1,0.2,2.7-0.2c0.7-0.2,0.7-0.8,1-1.4c0.5-1.4,1.1-2.7,1.7-4c0.7-1.4,1.3-3,2.2-4.3
		c0.6-0.8,1.2-1.1,1.7-2c0.9-2.1,2-4.1,3.4-5.9c1.5-2,4.2-2.3,6.5-1.8c1.1,0.2,2.7,0.9,2.2,2.4c-0.2,0.6-1,1-1.4,1.4
		c0,0.1,0.7-0.7,0.7-0.4c-0.1,0.5-2.9,4.4-3.1,4.3c-0.1,0,1.1-1.9,1.1-2.1c-2.9,4.3-5.3,8.9-7.6,13.5c0.2,0,0.5-0.3,0.8-0.8
		c-0.2,0.5-0.4,0.8-0.4,0.8c3-0.2,6-0.2,9-0.3C80.8,75.9,82,75.1,82,76.2L82,76.2z M54.9,123c0.1,0.1,0.2,0.2,0.2,0.2L54.9,123z
		 M77.5,61.6c-6.1,8.6-9.9,18.8-14.1,28.3c-2.5,5.5-4.6,11.3-6.3,17.2c-0.8,2.7-1.4,5.3-1.9,8.1l0.4-1.4c0.8-3.6,2.1-7.1,3.3-10.6
		c2.7-7.5,5.3-15.3,8.7-22.5C70.7,74.1,73.4,67.4,77.5,61.6z M64.9,89.3c-0.7,1.5-1.2,3-1.8,4.5c0.6-1.4,1.2-2.7,1.7-4.2
		C64.8,89.5,64.8,89.5,64.9,89.3z M72.4,73.6l-0.8,1.7C71.9,74.8,72.2,74.2,72.4,73.6z M74.5,69.6l-1.8,3.5
		C73.4,71.3,74.1,69.6,74.5,69.6z"/>
	<path class="st0" d="M112.7,97.4c0.3-0.1-1.7,4.2-2.1,4.6c-1.1,1.8-2.4,3.6-3.6,5.4c-2.2,3.3-4.3,7.2-7.1,10
		c-1.1,1-1.8,1.5-3.3,1.4c-1.7-0.1-2.9-0.8-4-2c-0.2-0.2-2.3-2-2.1-2.5l0.5,0.7c-0.2-0.4-0.4-0.8-0.5-1.2v0.3
		c-0.2,0.2-0.8-2.5-0.8-2.8c-0.1-1.1,0.2-2.3,0.4-3.4c0.5-1.8,1.1-3.6,1.5-5.5c0.5-1.9,1.5-3.7,2.4-5.5c0.2-0.3,1.6-3.3,1.9-3.3
		c0,0.1-0.3,0.8-0.2,0.8l1.1-2.6l-0.2,0.2l2.2-5.3c-2.8,2.3-5,5.4-7.2,8.1c-1.1,1.3-2.1,2.9-3.3,4c-0.5,0.4-0.6,0.2-1,0.6
		c-0.3,0.4-0.5,0.9-0.8,1.4c-1.7,2.9-4,5.5-5.8,8.3l-1.4,2.4c-0.2,0.4-0.2,0.6-0.5,1c-1,1.1-2.7,0.7-3.6-0.4
		c-0.7-0.8-0.8-1.8-0.8-2.7c-0.3-3.3,0.5-6.9,1.1-10.2c1.3-7.1,3-14.3,5.4-21.2c2.1-6.2,5.2-11.7,8.1-17.5c0-0.1,0.4-1.7,0.8-1.9
		c-0.1,0.1-0.5,1.4-0.5,1.4l0.9-1.7c0,0-0.1,0-0.2-0.1c0-1.4,1.7-3.4,2.4-4.6c1.1-1.7,2.2-3.4,3.4-5.1c2.1-3,4.2-6.2,7.1-8.4
		c1.5-1.1,3.3-2.2,5.3-2.1c1,0,2,0.4,2.7,1.1c0.3,0.3,1.7,2.7,1.2,3c0,0-0.4-1.1-0.5-1.1c0.5,1.2,0.5,2.6,0.5,3.8
		c0.1-0.2,0.1-0.2,0.2-0.2c0.4,0-1.3,7-1.4,7.6c-0.8,2.7-1.8,5.2-3,7.7c-2.6,5.3-5.7,11-9.6,15.6c-0.8,0.8-1.7,1.4-2.4,2.1
		c-0.8,0.8-1.3,1.9-2.1,2.8c-2,2.3-4.1,4.4-6.3,6.4c-1.3,1.2-1.7,1.9-2.4,3.6c-0.5,1.6-1,3.2-1.5,4.7c-1,3-1.9,6.1-2.7,9.2
		c1.3-2,2.7-3.9,4.1-5.8c-1,1.1-1.7,2-1.7,2c-0.2-0.1,9.4-11.8,10.4-12.8c2.3-2.4,6.5-7.7,9.8-3.6c1.9,2.4,0.5,5.2-0.7,7.4
		c-2,4.2-4.4,9-5.6,13.3c0.1-0.1,0.5-1.2,0.7-1.1c0.5,0.5-0.9,4-1.1,4.7c-0.1,0.5-0.6,3,0,3.3c1,0.7,2.7-1.4,3.4-2
		c2.7-2.7,5.2-5.6,7.7-8.5c0.9-1.1,1.8-2.4,2.9-3.4c0.2-0.2,0.8-1,1.1-1C112.4,97,113.2,97.4,112.7,97.4z M86.5,83.3
		c-0.1,0.4-0.4,1.6-0.2,1.6c-0.2-0.1,2.8-8.1,3.1-8.8c0.6-1.6,1.5-3,2.1-4.6c0.6-1.7,1.4-3.3,2.2-4.9c1-2.1,10.3-20,9.7-20.4
		c-0.2-0.1-7.4,13.8-8.1,15.3c-1.5,3.2-3.5,6.2-4.7,9.6c-1.4,4-3.3,7.8-4,11.9L86.5,83.3z M86.5,83.3c0,0,0.1-0.1,0.1-0.2
		C86.5,83.2,86.5,83.2,86.5,83.3z M105.5,45.9c-2.7,4.3-5.1,9-7.4,13.6c-2.1,4.2-4.5,8.5-6.3,12.7c0.2-0.4,0.5-0.8,0.6-0.8
		c0,0-1.6,4.5-1.8,4.9l-2.3,6c5.5-5.8,10.2-12.2,14.1-19.1c-1.5,2.5-3.1,5-4.8,7.3l-3,4.3l-1.4,1.4l0.6-0.7c0.8-0.9,1.4-1.8,2.1-2.7
		c1.3-1.8,2.6-3.7,3.8-5.6c2.5-4,4.8-8,6.6-12.2c0.9-2.2,1.8-4.5,2.4-6.8c0.3-1.1,1.3-4.3,0.2-5.2c-1.1-0.9-2.6,1.8-3.2,2.7
		c0.1-0.1,0,0.1-0.1,0.2v-0.1c0,0.1-0.1,0.1-0.1,0.1L105.5,45.9C105.6,45.9,105.5,45.9,105.5,45.9z M92.3,77.1
		c-0.2,0.2-0.4,0.5-0.5,0.7C91.9,77.5,92.1,77.3,92.3,77.1z M105.7,45.8L105.7,45.8L105.7,45.8L105.7,45.8z"/>
	<path class="st0" d="M136.1,98.4l-2.4,3.1l-4.1,5.3c-1.1,1.4-2.4,2.7-3.4,4c-1.1,1.5-2.1,3.1-3.4,4.6c-1.4,1.4-3,3-4.8,4
		c-1.3,0.7-2.5,0.8-3.9,0.4c-2-0.5-3.7-1.7-5-3.3c-0.4-0.5-0.8-0.8-0.8-1.4c-0.1-0.5-0.2-1-0.2-1.5c-0.1-0.9,0.2-1.6,0.4-2.5
		c0.2-1,0.6-1.9,0.8-2.9c0.2-1.1,0.5-2.1,0.6-3c0.1-0.9-0.1-1.9,0.2-2.8c0.2-0.6,0.6-1.2,0.8-1.9c-0.2,0.5-0.6,0.9-0.7,1.3
		c-0.2,0.6-0.4,1.2-0.6,1.7c-0.2,0.6-0.3,1.1-0.5,1.7c-0.3,0.7-0.6,1.3-0.7,2.1c-0.1,0.7,0,1.4-0.1,2.1c-0.2,0.7-0.3,1.2-0.3,1.9
		c0,0.2,0.2,0.7,0.2,0.8c0,0.3-0.2,0.7-0.2,1.1c0,0.7,0.2,1.4,0.2,2.1c-1.2-2.1-1-4.3-0.6-6.5s0.7-4.5,1.2-6.7c1-4.5,3-8.9,5.9-12.5
		c2.4-3.1,5.5-5.5,9.6-4.7c1.5,0.3,3.2,1,4.2,2.3c1.1,1.4,1,3.3,0.5,4.9c-1,3-3.5,5.3-5.9,7.3c-1,0.8-2.1,1.7-3.2,2.4
		c-0.8,0.5-1.6,0.8-2.4,1.1l-1.3,0.5c-0.5,0.2-0.6,0.1-0.8,0.5c-0.4,0.8-0.2,1.5-0.3,2.3c-0.2,1-0.4,1.9-0.6,2.9
		c-0.4,1.8-1,4.2-0.5,6.1c0.8,3.9,7.2-2.1,8.4-3.2c0.8-0.7,1.4-1.4,2.1-2.1c0.4-0.5,0.8-0.8,1.1-1.3c0,0,0.2-0.4,0.2-0.5
		c0.9-1.4,2.1-2.8,3.3-4.2c1.4-1.6,2.6-3.3,3.9-5c0.7-1,2.3-3.8,3.5-1.7v0.1c0.1,0.1,0.1,0.1,0.1,0
		C136.7,97.5,136.4,97.9,136.1,98.4z M116.5,100.2c2.4-1.3,4.6-3,6.4-5.1l1.3-1.7c0.2-0.4,0.6-0.6,0.8-1.1c0.1-0.4-0.1-0.7,0-1.1
		l0.3-1.6c0.1-0.8-0.2-2.7-1.4-2.5c-0.5,0.2-1.1,0.8-1.4,1.2l-1.4,1.8c-1.6,2.4-2.4,4.9-3.6,7.4c0,0,0,0.1-0.1,0.2
		C117.1,98.5,116.9,99.3,116.5,100.2z"/>
	<path class="st0" d="M195.8,103.4c-1.9,2.7-3.8,5.5-5.9,8.1c-1.4,1.9-4.1,5.5-6.8,5.5c-0.5,0.1-3.7-1-3.6-1.6l0.1,0.1
		c-0.2-0.1-0.2-0.2-0.2-0.4c0,0.2-1.1-0.9-1.2-1.3c-0.5-0.8-0.7-1.8-0.8-2.7c-0.2-1.5-0.2-3-0.2-4.4c0-1.6,0.2-3,0.8-4.6
		c0.1-0.3,1.4-4.6,1.9-4.5c0.1,0-0.2,0.6-0.1,0.7c0.2-0.8,0.5-1.5,0.8-2.4c-0.1,0.2-0.2,0.3-0.3,0.5c-0.1-0.1,2.1-5.2,2.4-6.1
		c-2.5,2.4-3.8,5.6-6.3,8.1c-1.6,1.6-2.8,4.6-4.1,6.8c-1.1,1.8-2.1,4.6-4.5,2.2c-0.7-0.6-1.1-1.4-1.2-2.4c-0.1-1,0.3-2,0.5-2.9
		c0.2-0.8,0-1.1,0.1-2.1c0.3-2.7,2.1-5.4,3-8c0.2-0.8,2.7-5.5,1.4-5.5c-0.2-0.1-1.3,1.5-1.5,1.7c-0.9,1.1-1.8,2.2-2.6,3.3
		c-2.5,3.9-4.1,7.7-6.2,11.8c-0.8,1.6-1.5,3.2-2.3,4.7c-0.3,0.8-0.8,1.4-1.1,2.2c0,0.2-0.1,0.8-0.2,1c-0.8,1.4-3.7-0.6-4.5-1.5
		c-1.6-1.9-1-3.6-1.1-5.8c-0.2-2.8,0.9-5.5,1.8-8.2c0.4-1.3,0.9-2.6,1.5-3.9c0.4-0.7,1-1.3,1.3-2.1c0.2-0.4-0.1-0.8,0.6-1.1
		c0.5-0.2,1.3,0.2,1.7,0.6c0.6,0.5,1,1.5,1.4,2c0.4,0.5,1.1,0.9,0.8,2c0,0.2-0.2,0.3-0.2,0.5c-0.5,0.8-1.1,1.4-1.7,2.2
		c-0.2,0.3-0.6,0.8-0.7,1.1c-0.2,0.5,0,0.8-0.2,1.3c-0.2,1.1-0.8,2-1.1,3c-0.2,0.7-0.5,1.5-0.5,2.2c0,0.8,0.3,1.4,0.2,2.2
		c1.1-1.8,1.7-4.1,2.7-6.1c1.2-2.4,2.4-5,3.9-7.4c1.2-1.9,2.7-3.7,3.9-5.7c1-1.6,2.7-3.9,4.6-4.1c2.7-0.4,4.9,3,4.3,5.4
		c-0.5,1.9-1.7,3.8-2.4,5.6c-0.9,2.7-1.7,5.4-2.4,8.1c0.9-1.9,2.1-3.7,3.3-5.6l-1.5,2.1c-0.1-0.5,6.2-8.7,7-9.5
		c2.1-2,6.4-4.1,7.5,0.1c1,3.6-0.9,7.9-2.2,11.2c-1.2,2.9-3,6.3-3.6,9.2c0.1-0.2,0.2-0.3,0.3-0.5c0,0-0.5,3.6,0.2,3.8
		c1.4,0.3,4.4-3.8,5.2-4.7c2.1-2.3,4-4.7,6-7.1c0.4-0.5,3.7-5,4.3-3.3c0.1,0.2,0,0.1,0,0.1C198.8,99.4,196.8,101.9,195.8,103.4z
		 M171.2,92.4L171.2,92.4c0.5-1.1,1.8-4.6,1.4-5.7c0.3,1.2-1.5,5.9-1.8,6.5c-0.8,1.7-1.7,3.5-2.3,5.3c-0.5,1.5-1.1,3.6-1.1,5.3
		c0.2-1.7,0.9-3.5,1.5-5c0.8-2.1,1.2-4.3,2.1-6.2C171,92.7,171.1,92.5,171.2,92.4L171.2,92.4L171.2,92.4z"/>
	<path class="st0" d="M220.2,100.3c-0.2,0-1.1,0.3-1.1,0.2c-0.8,0.3-0.6,0.2-1.1,0.9c-0.6,0.9-1.1,1.9-1.7,2.8
		c-0.3,0.3-3,4.3-3.6,4.1c0,0,0.6-0.8,0.5-0.8l-2.2,2.6c0.2-0.2,0.4-0.3,0.4-0.2c-0.5,1.3-3,2.8-4.1,3.6c-1.2,0.9-2.7,1.7-4.3,2
		c-1.5,0.2-3.2-0.2-4.6-0.8c-4.5-2.2-7.1-8.3-4.7-12.9c1.3-2.4,2.2-5.2,4-7.6c1.1-1.3,2.2-2.6,3.6-3.5c0.6-0.5,1.3-0.8,2.1-1.1
		c0.5-0.3,1.7-0.4,2.1-0.7c0.5-0.3,0.9-2.3,1.2-2.9c0.3-0.6,0.7-1.2,1.1-1.7c1.1-1.5,2.4-3,4-4c2.6-1.4,5.2,0,7.1,1.9
		c0,0,1.3,0.8,1.2,1.3l-0.3-0.3l0.3,0.6l0.1,0.1c-0.2-0.6,0.7,0.5,0.7,0.5c0.4,0.6,0.6,1.3,0.8,2c0.2,1.1,0.2,2.2,0,3.3
		c-0.3,2.8-1.1,5.7-2,8.4c2.3-0.4,4.6-0.9,6.8-1.4c0.5-0.2,1.1-0.5,1.4,0c0.1,0.2,0,0.1,0,0.1C230,99.6,221.1,100.2,220.2,100.3z
		 M213.1,100.6c-3.3-0.5-7.4-1.9-8.3-5.7c-0.5,0.6-1.6,2.4-2.7,4.7l0.5-0.7c-0.2,0.8-7.4,14.1-1.1,13.2h0.1
		C206.8,111.1,210.9,105,213.1,100.6z M216.7,83.5c-1.5-2.4-4.3,1.1-5.5,2.6c-0.1,0-0.1,0.1-0.1,0.1l-0.1,0.2v-0.1
		c-0.1,0.2-0.2,0.2-0.1,0.2c-0.4,0.5-0.8,1-1.3,1.8c0.1-0.1,0.9-1.4,1-1.2c0.2,0.5-1.2,2.9-1.4,3.3c-0.5,1.2-0.8,2.4-1,3.7
		c-0.2,1.3-0.3,2.7,0.8,3.6c0.6,0.5,1.6,0.7,2.4,0.8c0.5,0.1,1.4,0.2,1.9,0.1c0.8-0.2,0.5,0.1,0.9-0.7c1.1-1.9,1.6-4.7,2.1-6.8
		C216.8,89.2,217.9,85.4,216.7,83.5z M211.3,86L211.3,86C211.2,86.1,211.3,86.1,211.3,86z"/>
	<path class="st0" d="M266.1,103.4c-1.9,2.7-3.8,5.5-5.9,8.1c-1.4,1.9-4.1,5.5-6.8,5.5c-0.5,0.1-3.7-1-3.6-1.6l0.1,0.1
		c-0.2-0.1-0.2-0.2-0.2-0.4c0,0.2-1.1-0.9-1.2-1.3c-0.5-0.8-0.7-1.8-0.8-2.7c-0.2-1.5-0.2-3-0.2-4.4c0-1.6,0.2-3,0.8-4.6
		c0.1-0.3,1.4-4.6,1.9-4.5c0.1,0-0.2,0.6-0.1,0.7c0.2-0.8,0.5-1.5,0.8-2.4c-0.1,0.2-0.2,0.3-0.3,0.5c-0.1-0.1,2.1-5.2,2.4-6.1
		c-2.5,2.4-3.8,5.6-6.3,8.1c-1.6,1.6-2.8,4.6-4.1,6.8c-1.1,1.8-2.1,4.6-4.5,2.2c-0.7-0.6-1.1-1.4-1.2-2.4c-0.1-1,0.3-2,0.5-2.9
		c0.2-0.8,0-1.1,0.1-2.1c0.3-2.7,2.1-5.4,3-8c0.2-0.8,2.7-5.5,1.4-5.5c-0.2-0.1-1.3,1.5-1.5,1.7c-0.9,1.1-1.8,2.2-2.6,3.3
		c-2.5,3.9-4.1,7.7-6.2,11.8c-0.8,1.6-1.5,3.2-2.3,4.7c-0.3,0.8-0.8,1.4-1.1,2.2c0,0.2-0.1,0.8-0.2,1c-0.8,1.4-3.7-0.6-4.5-1.5
		c-1.6-1.9-1-3.6-1.1-5.8c-0.2-2.8,0.9-5.5,1.8-8.2c0.4-1.3,0.9-2.6,1.5-3.9c0.4-0.7,1-1.3,1.3-2.1c0.2-0.4-0.1-0.8,0.6-1.1
		c0.5-0.2,1.3,0.2,1.7,0.6c0.6,0.5,1,1.5,1.4,2c0.4,0.5,1.1,0.9,0.8,2c0,0.2-0.2,0.3-0.2,0.5c-0.5,0.8-1.1,1.4-1.7,2.2
		c-0.2,0.3-0.6,0.8-0.7,1.1c-0.2,0.5,0,0.8-0.2,1.3c-0.2,1.1-0.8,2-1.1,3c-0.2,0.7-0.5,1.5-0.5,2.2c0,0.8,0.3,1.4,0.2,2.2
		c1.1-1.8,1.7-4.1,2.7-6.1c1.2-2.4,2.4-5,3.9-7.4c1.2-1.9,2.7-3.7,3.9-5.7c1-1.6,2.7-3.9,4.6-4.1c2.7-0.4,4.9,3,4.3,5.4
		c-0.5,1.9-1.7,3.8-2.4,5.6c-0.9,2.7-1.7,5.4-2.4,8.1c0.9-1.9,2.1-3.7,3.3-5.6l-1.5,2.1c-0.1-0.5,6.2-8.7,7-9.5
		c2.1-2,6.4-4.1,7.5,0.1c1,3.6-0.9,7.9-2.2,11.2c-1.2,2.9-3,6.3-3.6,9.2c0.1-0.2,0.2-0.3,0.3-0.5c0,0-0.5,3.6,0.2,3.8
		c1.4,0.3,4.4-3.8,5.2-4.7c2.1-2.3,4-4.7,6-7.1c0.4-0.5,3.7-5,4.3-3.3c0.1,0.2,0,0.1,0,0.1C269.2,99.4,267.1,101.9,266.1,103.4z
		 M241.5,92.4L241.5,92.4c0.5-1.1,1.8-4.6,1.4-5.7c0.3,1.2-1.5,5.9-1.8,6.5c-0.8,1.7-1.7,3.5-2.3,5.3c-0.5,1.5-1.1,3.6-1.1,5.3
		c0.2-1.7,0.9-3.5,1.5-5c0.8-2.1,1.2-4.3,2.1-6.2C241.4,92.7,241.4,92.5,241.5,92.4L241.5,92.4L241.5,92.4z"/>
	<path class="st0" d="M292,98.4l-2.4,3.1l-4.1,5.3c-1.1,1.4-2.4,2.7-3.4,4c-1.1,1.5-2.1,3.1-3.4,4.6c-1.4,1.4-3,3-4.8,4
		c-1.3,0.7-2.5,0.8-3.9,0.4c-2-0.5-3.7-1.7-5-3.3c-0.4-0.5-0.8-0.8-0.8-1.4c-0.1-0.5-0.2-1-0.2-1.5c-0.1-0.9,0.2-1.6,0.4-2.5
		c0.2-1,0.6-1.9,0.8-2.9c0.2-1.1,0.5-2.1,0.6-3c0.1-0.9-0.1-1.9,0.2-2.8c0.2-0.6,0.6-1.2,0.8-1.9c-0.2,0.5-0.6,0.9-0.7,1.3
		c-0.2,0.6-0.4,1.2-0.6,1.7c-0.2,0.6-0.3,1.1-0.5,1.7c-0.3,0.7-0.6,1.3-0.7,2.1c-0.1,0.7,0,1.4-0.1,2.1c-0.2,0.7-0.3,1.2-0.3,1.9
		c0,0.2,0.2,0.7,0.2,0.8c0,0.3-0.2,0.7-0.2,1.1c0,0.7,0.2,1.4,0.2,2.1c-1.2-2.1-1-4.3-0.6-6.5s0.7-4.5,1.2-6.7c1-4.5,3-8.9,5.9-12.5
		c2.4-3.1,5.5-5.5,9.6-4.7c1.5,0.3,3.2,1,4.2,2.3c1.1,1.4,1,3.3,0.5,4.9c-1,3-3.5,5.3-5.8,7.3c-1,0.8-2.1,1.7-3.2,2.4
		c-0.8,0.5-1.6,0.8-2.4,1.1l-1.3,0.5c-0.5,0.2-0.6,0.1-0.8,0.5c-0.4,0.8-0.2,1.5-0.3,2.3c-0.2,1-0.4,1.9-0.6,2.9
		c-0.4,1.8-1,4.2-0.5,6.1c0.8,3.9,7.2-2.1,8.4-3.2c0.8-0.7,1.4-1.4,2.1-2.1c0.4-0.5,0.8-0.8,1.1-1.3c0,0,0.2-0.4,0.2-0.5
		c0.9-1.4,2.1-2.8,3.3-4.2c1.4-1.6,2.6-3.3,3.9-5c0.7-1,2.3-3.8,3.5-1.7v0.1c0.1,0.1,0.1,0.1,0.1,0C292.6,97.5,292.3,97.9,292,98.4z
		 M272.4,100.2c2.4-1.3,4.6-3,6.4-5.1l1.3-1.7c0.2-0.4,0.6-0.6,0.8-1.1c0.1-0.4-0.1-0.7,0-1.1l0.3-1.6c0.1-0.8-0.2-2.7-1.4-2.5
		c-0.5,0.2-1.1,0.8-1.4,1.2l-1.4,1.8c-1.6,2.4-2.4,4.9-3.6,7.4c0,0,0,0.1-0.1,0.2C273,98.5,272.8,99.3,272.4,100.2z"/>
	<path class="st0" d="M314.7,103.2c-1.7,2.1-3.2,4.4-5,6.4c-1.4,1.4-3.6,3.9-5.8,3.2c-0.5-0.2-3.3-1.7-3.2-2.1l0.2,0.2l-0.5-0.5
		c0.4,0.6-0.5-0.2-0.5-0.2c-0.4-0.4-0.7-1-0.9-1.4c-0.4-0.8-0.5-1.7-0.5-2.5s0.2-1.7,0.2-2.5c0.2-1.7,0.2-3.3,0.8-4.9
		c0.2-0.4,1.7-4.6,2.3-4.5c0.2,0-0.2,0.5-0.2,0.6l1.1-2.1c-0.2,0.2-0.2,0.3-0.4,0.4c-0.1-0.1,0.9-1.8,1.1-2.2
		c-1.5,1.7-2.7,3.6-4.1,5.4c-1,1.3-2.2,2.1-2.9,3.3c-1.6,2.7-3.6,5.2-4.9,8.1l-0.3-0.6c-1.4,1.7-3.4-0.3-4.2-1.6
		c-0.7-1.2-0.5-2.1-0.3-3.5c0.2-1.2,0.1-2.4,0.5-3.7c0.5-1.6,1.1-3.1,1.7-4.7c0.5-1.6,1.1-3.2,1.7-4.8c0.4-1,1.1-2.2,1.4-3.3
		c0.2-0.8,0-1.4,1-2c0.9-0.5,1.9-0.5,2.9-0.3c1.2,0.2,3.4,1.5,2.1,3.4c-0.5,0.7-1.4,1.4-2.1,2.2c-0.7,0.8-0.6,1.2-0.9,2.2
		c-0.2,0.6-0.8,1.1-1.1,1.7c-0.5,0.8-0.8,1.9-1.1,2.9c-0.2,0.6-0.1,1.1-0.2,1.7c-0.2,1.6-0.7,3.2-0.8,4.8c0.1-0.3,0.6-0.8,0.7-0.8
		s-0.8,1.4-0.7,1.4l4.5-6.5c-1,1.3-1.7,2.2-1.7,2.2c-0.2-0.2,8.8-11.7,9.9-12.7c2.2-2.1,5-2,6.1,1.6c1.2,3.8-2.7,6.3-4.6,9
		c-1,1.5-1.8,3.3-2.6,4.9c-0.5,1-1.7,3.2-1.8,4.9c0.2-1.1,1-2.5,1.3-3.3c0.6-1.6,1.4-2.9,2.7-4c-0.5,1-1.1,1.9-1.6,2.8l0.4-0.5
		c0.2,0-0.7,2.6-0.8,2.7c-0.3,0.9-0.6,1.9-0.7,2.9c-0.1,0.1,0,1.3,0,1.3l0.1,0.1c0-0.1,0.5-0.2,0.7-0.2c1.1-0.4,2.3-1.4,3.2-2.2
		c1.8-1.4,3.6-3,5.3-4.6c1.3-1.2,3-2.4,4-3.7c0.5-0.7,1.5-1.9,1.9-0.1C318.5,99.4,315.7,102,314.7,103.2z"/>
	<path class="st0" d="M343.5,76.2c0.1,1.1-1.2,1.9-2.1,2.1c-1,0.3-2.1-0.3-3-0.2c-0.5,0.2-0.4,0.4-0.8,0.5c-0.7,0.2-1.5,0.2-2.2,0.2
		c-1,0-3.1-0.5-4,0c-0.2,0.1-0.3,0.2-0.5,0.5l0.2-0.5c-0.5,0.1-1.2,2.1-1.7,3.5l0.8-1.7l-1.1,2.9c-0.8,1.6-1.4,3.3-2.1,4.9
		c-1.4,3.2-2.6,6.3-3.8,9.6c-2.1,5.9-4.1,12.2-5.5,18.3c-0.2,1.1-1.5,5.5-0.1,6.1c0.2,0.2,1.8-0.8,1.7-0.7c0.4-0.4,0.8-0.8,1.2-1.2
		c-0.3,0.2-1.1,0.9-1.1,0.8c-0.1-0.5,1.8-2,2.1-2.4c0.8-0.8,1.4-1.6,2.1-2.4l4.4-5.4c2.7-3.4,5.3-6.9,8.1-10.3c0.6-0.8,2-3.4,3-3.6
		c1.2-0.2,1.4,1,1.1,2c-0.7,2.1-2.7,3.7-3.8,5.5c-1.9,3.2-4.2,6.2-6.4,9.2c-2.4,3.3-4.9,6.5-7.5,9.6c-1.2,1.5-2.8,3.6-4.7,4.6
		c-1.4,0.7-3.3-0.2-4.6-1.1c-1.4-0.9-2.1-2.3-2.4-3.8c-0.1-0.5-0.5-2.9-0.1-3.4v1.1l0.2-1.5c-0.2,0.3-0.2-0.7-0.2-0.8
		c0-0.6,0.2-1.3,0.3-1.9c0.2-1.2,0.5-2.4,0.8-3.6c0.5-2.4,1.1-4.7,1.6-7.1c0.4-2.4,1.2-4.7,2-7c0.2-0.4,1.7-5,2.1-5
		c0.1,0-0.2,0.9-0.2,1c0.3-1.1,0.8-2.3,1.1-3.4c-0.2,0.4-0.4,0.8-0.4,0.6c0-0.9,1-2.5,1.3-3.3l0.9-2.7c0.8-2.4,1.7-4.9,2.7-7.1
		c-2.1,0.2-4.2,0-6.2,0.4c-2.9,0.5-6.5,0.2-9.4-0.2c-0.4-0.1-2.2-0.2-1.7-1c0.2-0.2,1.8-0.6,2.1-0.7c1.4-0.5,3-0.5,4.5-0.6
		c3-0.3,5.8-0.2,8.8-0.5c0.8-0.1,2.1,0.2,2.7-0.2c0.7-0.2,0.7-0.8,1-1.4c0.5-1.4,1.1-2.7,1.7-4c0.7-1.4,1.3-3,2.2-4.3
		c0.6-0.8,1.2-1.1,1.7-2c0.9-2.1,2-4.1,3.4-5.9c1.5-2,4.2-2.3,6.5-1.8c1.1,0.2,2.7,0.9,2.2,2.4c-0.2,0.6-1,1-1.4,1.4
		c0,0.1,0.7-0.7,0.7-0.4c-0.1,0.5-2.9,4.4-3.1,4.3c-0.1,0,1.1-1.9,1.1-2.1c-2.9,4.3-5.3,8.9-7.6,13.5c0.2,0,0.5-0.3,0.8-0.8
		c-0.2,0.5-0.4,0.8-0.4,0.8c3-0.2,6-0.2,9-0.3C342.3,75.9,343.5,75.1,343.5,76.2L343.5,76.2z M316.3,123c0.1,0.1,0.2,0.2,0.2,0.2
		L316.3,123z M339,61.6c-6.1,8.6-9.9,18.8-14.1,28.3c-2.5,5.5-4.6,11.3-6.3,17.2c-0.8,2.7-1.4,5.3-1.9,8.1l0.4-1.4
		c0.8-3.6,2.1-7.1,3.3-10.6c2.7-7.5,5.3-15.3,8.7-22.5C332.1,74.1,334.9,67.4,339,61.6z M326.4,89.3c-0.7,1.5-1.2,3-1.8,4.5
		c0.6-1.4,1.2-2.7,1.7-4.2C326.3,89.5,326.3,89.5,326.4,89.3z M333.9,73.6l-0.8,1.7C333.4,74.8,333.7,74.2,333.9,73.6z M335.9,69.6
		l-1.8,3.5C334.9,71.3,335.6,69.6,335.9,69.6z"/>
</g>
<g>
	<g>
		<path class="st1" d="M34.1,65.9c-3,6.3-8.3,9.8-14.7,9.8C6.5,75.7,0,63.7,0,37.7C0,12.7,6.9,0,20.4,0C25,0,31.1,3.3,34.1,9.9
			l-4.8,3.3c-3.5-6.3-7.2-7.2-9.9-7.2c-11.1,0-12.8,17-12.8,30.1c0,14.7,1.7,33.4,13.3,33.4c4.7,0,6.9-2.6,9-6.6L34.1,65.9z"/>
		<path class="st1" d="M49.3,38.1c0,2.7-2.2,4.9-4.9,4.9c-2.7,0-4.9-2.2-4.9-4.9c0-2.7,2.2-4.9,4.9-4.9C47,33.2,49.3,35.4,49.3,38.1
			z"/>
		<path class="st1" d="M86.4,63.3L69,44.3l-5.9,30.3H57L71.7,1.5h7.7L95,74.7h-6.4L86.4,63.3z M84.2,52.3l-8.6-41.5l-5.1,26.6
			L84.2,52.3z"/>
		<path class="st1" d="M112.4,38.1c0,2.7-2.2,4.9-4.9,4.9c-2.7,0-4.9-2.2-4.9-4.9c0-2.7,2.2-4.9,4.9-4.9
			C110.2,33.2,112.4,35.4,112.4,38.1z"/>
		<path class="st1" d="M146.4,28.5l-15.8,19.1v27h-6.4V1.5H141c9.3,0,13.7,4.2,13.7,10.7C154.7,18.2,152.4,21.1,146.4,28.5z
			 M142.6,24.5c4.5-5.5,5.5-7.6,5.5-11.5c0-3.8-2.4-5.4-7-5.4h-10.6v31.6L142.6,24.5z"/>
		<path class="st1" d="M170.1,38.1c0,2.7-2.2,4.9-4.9,4.9c-2.7,0-4.9-2.2-4.9-4.9c0-2.7,2.2-4.9,4.9-4.9
			C167.9,33.2,170.1,35.4,170.1,38.1z"/>
		<path class="st1" d="M195.3,7.5v67.1h-6.4V7.5h-13.1V1.5h32.5v6.1H195.3z"/>
		<path class="st1" d="M224,38.1c0,2.7-2.2,4.9-4.9,4.9c-2.7,0-4.9-2.2-4.9-4.9c0-2.7,2.2-4.9,4.9-4.9C221.7,33.2,224,35.4,224,38.1
			z"/>
		<path class="st1" d="M270.4,57.1c0,11.2-5.8,18.5-17.6,18.5c-11.5,0-17.8-6.5-17.8-17.9V1.5h6.4V57c0,9.3,4.8,12.8,12,12.8
			c6.1,0,10.6-3.5,10.6-12.8V1.5h6.4V57.1z"/>
		<path class="st1" d="M291.4,38.1c0,2.7-2.2,4.9-4.9,4.9c-2.7,0-4.9-2.2-4.9-4.9c0-2.7,2.2-4.9,4.9-4.9
			C289.2,33.2,291.4,35.4,291.4,38.1z"/>
		<path class="st1" d="M316.1,39.8l-6.5,7.8v27h-6.4V1.5H320c9.3,0,13.7,4.2,13.7,11.2c0,5.5-2.3,8.5-8.4,15.9l-4.7,5.8l16.5,38.4
			l-5.8,2.9L316.1,39.8z M309.6,39.1l12-14.6c4.5-5.5,5.5-7.6,5.5-11.5c0-3.8-2.4-5.4-7-5.4h-10.6V39.1z"/>
		<path class="st1" d="M353.7,38.1c0,2.7-2.2,4.9-4.9,4.9c-2.7,0-4.9-2.2-4.9-4.9c0-2.7,2.2-4.9,4.9-4.9
			C351.5,33.2,353.7,35.4,353.7,38.1z"/>
		<path class="st1" d="M365.5,1.5H388v6.1h-16.1v12.7h9.9v5.6h-9.9v42.7H388v6.2h-22.5V1.5z"/>
	</g>
</g>
</svg>
