<?xml version="1.0" encoding="utf-8"?>
<!-- Generator: Adobe Illustrator 20.0.0, SVG Export Plug-In . SVG Version: 6.00 Build 0)  -->
<svg version="1.1" id="Layer_1" xmlns="http://www.w3.org/2000/svg" xmlns:xlink="http://www.w3.org/1999/xlink" x="0px" y="0px"
	 viewBox="0 0 711.8 90.2" style="enable-background:new 0 0 711.8 90.2;" xml:space="preserve">
<style type="text/css">
	.st0{fill:#D7948B;}
	.st1{fill:#F5F1EE;}
</style>
<g>
	<path class="st0" d="M436.6,38.1c0.1,1.1-1.2,1.9-2.1,2.1c-1,0.3-2.1-0.3-3-0.2c-0.5,0.2-0.4,0.4-0.8,0.5c-0.7,0.2-1.5,0.2-2.2,0.2
		c-1,0-3.1-0.5-4,0c-0.2,0.1-0.3,0.2-0.5,0.5l0.2-0.5c-0.5,0.1-1.2,2.1-1.7,3.5l0.8-1.7l-1.1,2.9c-0.8,1.6-1.4,3.3-2.1,4.9
		c-1.4,3.2-2.6,6.3-3.8,9.6c-2.1,5.9-4.1,12.2-5.5,18.3c-0.2,1.1-1.5,5.5-0.1,6.1c0.2,0.2,1.8-0.8,1.7-0.7c0.4-0.4,0.8-0.8,1.2-1.2
		c-0.3,0.2-1.1,0.9-1.1,0.8c-0.1-0.5,1.8-2,2.1-2.4c0.8-0.8,1.4-1.6,2.1-2.4l4.4-5.4c2.7-3.4,5.3-6.9,8.1-10.3c0.6-0.8,2-3.4,3-3.6
		c1.2-0.2,1.4,1,1.1,2c-0.7,2.1-2.7,3.7-3.8,5.5c-1.9,3.2-4.2,6.2-6.4,9.2c-2.4,3.3-4.9,6.5-7.5,9.6c-1.2,1.5-2.8,3.6-4.7,4.6
		c-1.4,0.7-3.3-0.2-4.6-1.1c-1.4-0.9-2.1-2.3-2.4-3.8c-0.1-0.5-0.5-2.9-0.1-3.4v1.1l0.2-1.5c-0.2,0.3-0.2-0.7-0.2-0.8
		c0-0.6,0.2-1.3,0.3-1.9c0.2-1.2,0.5-2.4,0.8-3.6c0.5-2.4,1.1-4.7,1.6-7.1c0.4-2.4,1.2-4.7,2-7c0.2-0.4,1.7-5,2.1-5
		c0.1,0-0.2,0.9-0.2,1c0.3-1.1,0.8-2.3,1.1-3.4c-0.2,0.4-0.4,0.8-0.4,0.6c0-0.9,1-2.5,1.3-3.3l0.9-2.7c0.8-2.4,1.7-4.9,2.7-7.1
		c-2.1,0.2-4.2,0-6.2,0.4c-2.9,0.5-6.5,0.2-9.4-0.2c-0.4-0.1-2.2-0.2-1.7-1c0.2-0.2,1.8-0.6,2.1-0.7c1.4-0.5,3-0.5,4.5-0.6
		c3-0.3,5.9-0.2,8.8-0.5c0.8-0.1,2.1,0.2,2.7-0.2c0.7-0.2,0.7-0.8,1-1.4c0.5-1.4,1.1-2.7,1.7-4c0.7-1.4,1.3-3,2.2-4.3
		c0.6-0.8,1.2-1.1,1.7-2c0.9-2.1,2-4.1,3.4-5.9c1.5-2,4.2-2.3,6.5-1.8c1.1,0.2,2.7,0.9,2.2,2.4c-0.2,0.6-1,1-1.4,1.4
		c0,0.1,0.7-0.7,0.7-0.4c-0.1,0.5-2.9,4.4-3.1,4.3c-0.1,0,1.1-1.9,1.1-2.1c-2.9,4.3-5.3,8.9-7.6,13.5c0.2,0,0.5-0.3,0.8-0.8
		c-0.2,0.5-0.4,0.8-0.4,0.8c3-0.2,6-0.2,9-0.3C435.3,37.8,436.5,36.9,436.6,38.1L436.6,38.1z M409.4,84.8c0.1,0.1,0.2,0.2,0.2,0.2
		L409.4,84.8z M432,23.4c-6.1,8.6-9.9,18.8-14.1,28.3c-2.5,5.5-4.6,11.3-6.3,17.2c-0.8,2.7-1.4,5.3-1.9,8.1l0.4-1.4
		c0.8-3.6,2.1-7.1,3.3-10.6c2.7-7.5,5.3-15.3,8.7-22.5C425.2,36,427.9,29.3,432,23.4z M419.4,51.1c-0.7,1.5-1.2,3-1.8,4.5
		c0.6-1.4,1.2-2.7,1.7-4.2C419.3,51.4,419.3,51.3,419.4,51.1z M426.9,35.4l-0.8,1.7C426.4,36.6,426.7,36,426.9,35.4z M429,31.4
		l-1.8,3.5C427.9,33.1,428.6,31.5,429,31.4z"/>
	<path class="st0" d="M467.2,59.3c0.3-0.1-1.7,4.2-2.1,4.6c-1.1,1.8-2.4,3.6-3.6,5.4c-2.2,3.3-4.3,7.2-7.1,10
		c-1.1,1-1.8,1.5-3.3,1.4c-1.7-0.1-2.9-0.8-4-2c-0.2-0.2-2.3-2-2.1-2.5l0.5,0.7c-0.2-0.4-0.4-0.8-0.5-1.2V76
		c-0.2,0.2-0.8-2.5-0.8-2.8c-0.1-1.1,0.2-2.3,0.4-3.4c0.5-1.8,1.1-3.6,1.5-5.5c0.5-1.9,1.5-3.7,2.4-5.5c0.2-0.3,1.6-3.3,1.9-3.3
		c0,0.1-0.3,0.8-0.2,0.8l1.1-2.6l-0.2,0.2l2.2-5.3c-2.8,2.3-5,5.4-7.2,8.1c-1.1,1.3-2.1,2.9-3.3,4c-0.5,0.4-0.6,0.2-1,0.6
		c-0.3,0.4-0.5,0.9-0.8,1.4c-1.7,2.9-4,5.5-5.8,8.3l-1.4,2.4c-0.2,0.4-0.2,0.6-0.5,1c-1,1.1-2.7,0.7-3.6-0.4
		c-0.7-0.8-0.8-1.8-0.8-2.7c-0.3-3.3,0.5-6.9,1.1-10.2c1.3-7.1,3-14.3,5.4-21.2c2.1-6.2,5.2-11.7,8.1-17.5c0-0.1,0.4-1.7,0.8-1.9
		c-0.1,0.1-0.5,1.4-0.5,1.4l0.9-1.7c0,0-0.1,0-0.2-0.1c0-1.4,1.7-3.4,2.4-4.6c1.1-1.7,2.2-3.4,3.4-5.1c2.1-3,4.2-6.2,7.1-8.4
		c1.5-1.1,3.3-2.2,5.3-2.1c1,0,2,0.4,2.7,1.1c0.3,0.3,1.7,2.7,1.2,3c0,0-0.4-1.1-0.5-1.1c0.5,1.2,0.5,2.6,0.5,3.8
		c0.1-0.2,0.1-0.2,0.2-0.2c0.4,0-1.3,7-1.4,7.6c-0.8,2.7-1.8,5.2-3,7.7c-2.6,5.3-5.7,11-9.6,15.6c-0.8,0.8-1.7,1.4-2.4,2.1
		c-0.8,0.8-1.3,1.9-2.1,2.8c-2,2.3-4.1,4.4-6.3,6.4c-1.3,1.2-1.7,1.9-2.4,3.6c-0.5,1.6-1,3.2-1.5,4.7c-1,3-1.9,6.1-2.7,9.2
		c1.3-2,2.7-3.9,4.1-5.8c-1,1.1-1.7,2-1.7,2c-0.2-0.1,9.4-11.8,10.4-12.8c2.3-2.4,6.5-7.7,9.8-3.6c1.9,2.4,0.5,5.2-0.7,7.4
		c-2,4.2-4.4,9-5.6,13.3c0.1-0.1,0.5-1.2,0.7-1.1c0.5,0.5-0.9,4-1.1,4.7c-0.1,0.5-0.6,3,0,3.3c1,0.7,2.7-1.4,3.4-2
		c2.7-2.7,5.2-5.6,7.7-8.5c0.9-1.1,1.8-2.4,2.9-3.4c0.2-0.2,0.8-1,1.1-1C466.9,58.8,467.7,59.2,467.2,59.3z M441,45.1
		c-0.1,0.4-0.4,1.6-0.2,1.6c-0.2-0.1,2.8-8.1,3.1-8.8c0.6-1.6,1.5-3,2.1-4.6c0.6-1.7,1.4-3.3,2.2-4.9c1-2.1,10.3-20,9.7-20.4
		c-0.2-0.1-7.4,13.8-8.1,15.3c-1.5,3.2-3.5,6.2-4.7,9.6c-1.4,4-3.3,7.8-4,11.9L441,45.1z M441,45.1c0,0,0.1-0.1,0.1-0.2
		C441,45.1,441,45.1,441,45.1z M460,7.8c-2.7,4.3-5.1,9-7.4,13.6c-2.1,4.2-4.5,8.5-6.3,12.7c0.2-0.4,0.5-0.8,0.6-0.8
		c0,0-1.6,4.5-1.8,4.9l-2.3,6c5.5-5.8,10.2-12.2,14.1-19.1c-1.5,2.5-3.1,5-4.8,7.3l-3,4.3l-1.4,1.4l0.6-0.7c0.8-0.9,1.4-1.8,2.1-2.7
		c1.3-1.8,2.6-3.7,3.8-5.6c2.5-4,4.8-8,6.6-12.2c0.9-2.2,1.8-4.5,2.4-6.8c0.3-1.1,1.3-4.3,0.2-5.2c-1.1-0.9-2.6,1.8-3.2,2.7
		c0.1-0.1,0,0.1-0.1,0.2V7.5c0,0.1-0.1,0.1-0.1,0.1L460,7.8C460.1,7.8,460,7.8,460,7.8z M446.8,38.9c-0.2,0.2-0.4,0.5-0.5,0.7
		C446.4,39.4,446.6,39.1,446.8,38.9z M460.2,7.6L460.2,7.6L460.2,7.6L460.2,7.6z"/>
	<path class="st0" d="M490.6,60.2l-2.4,3.1l-4.1,5.3c-1.1,1.4-2.4,2.7-3.4,4c-1.1,1.5-2.1,3.1-3.4,4.6c-1.4,1.4-3,3-4.8,4
		c-1.3,0.7-2.5,0.8-3.9,0.4c-2-0.5-3.7-1.7-5-3.3c-0.4-0.5-0.8-0.8-0.8-1.4c-0.1-0.5-0.2-1-0.2-1.5c-0.1-0.9,0.2-1.6,0.4-2.5
		c0.2-1,0.6-1.9,0.8-2.9c0.2-1.1,0.5-2.1,0.6-3c0.1-0.9-0.1-1.9,0.2-2.8c0.2-0.6,0.6-1.2,0.8-1.9c-0.2,0.5-0.6,0.9-0.7,1.3
		c-0.2,0.6-0.4,1.2-0.6,1.7c-0.2,0.6-0.3,1.1-0.5,1.7c-0.3,0.7-0.6,1.3-0.7,2.1c-0.1,0.7,0,1.4-0.1,2.1c-0.2,0.7-0.3,1.2-0.3,1.9
		c0,0.2,0.2,0.7,0.2,0.8c0,0.3-0.2,0.7-0.2,1.1c0,0.7,0.2,1.4,0.2,2.1c-1.2-2.1-1-4.3-0.6-6.5s0.7-4.5,1.2-6.7c1-4.5,3-8.9,5.9-12.5
		c2.4-3.1,5.5-5.5,9.6-4.7c1.5,0.3,3.2,1,4.2,2.3c1.1,1.4,1,3.3,0.5,4.9c-1,3-3.5,5.3-5.9,7.3c-1,0.8-2.1,1.7-3.2,2.4
		c-0.8,0.5-1.6,0.8-2.4,1.1l-1.3,0.5c-0.5,0.2-0.6,0.1-0.8,0.5c-0.4,0.8-0.2,1.5-0.3,2.3c-0.2,1-0.4,1.9-0.6,2.9
		c-0.4,1.8-1,4.2-0.5,6.1c0.8,3.9,7.2-2.1,8.4-3.2c0.8-0.7,1.4-1.4,2.1-2.1c0.4-0.5,0.8-0.8,1.1-1.3c0,0,0.2-0.4,0.2-0.5
		c0.9-1.4,2.1-2.8,3.3-4.2c1.4-1.6,2.6-3.3,3.9-5c0.7-1,2.3-3.8,3.5-1.7v0.1c0.1,0.1,0.1,0.1,0.1,0
		C491.2,59.4,490.9,59.7,490.6,60.2z M471,62c2.4-1.3,4.6-3,6.4-5.1l1.3-1.7c0.2-0.4,0.6-0.6,0.8-1.1c0.1-0.4-0.1-0.7,0-1.1l0.3-1.6
		c0.1-0.8-0.2-2.7-1.4-2.5c-0.5,0.2-1.1,0.8-1.4,1.2l-1.4,1.8c-1.6,2.4-2.4,4.9-3.6,7.4c0,0,0,0.1-0.1,0.2
		C471.7,60.3,471.4,61.2,471,62z"/>
	<path class="st0" d="M550.3,65.2c-1.9,2.7-3.8,5.5-5.9,8.1c-1.4,1.9-4.1,5.5-6.8,5.5c-0.5,0.1-3.7-1-3.6-1.6l0.1,0.1
		c-0.2-0.1-0.2-0.2-0.2-0.4c0,0.2-1.1-0.9-1.2-1.3c-0.5-0.8-0.7-1.8-0.8-2.7c-0.2-1.5-0.2-3-0.2-4.4c0-1.6,0.2-3,0.8-4.6
		c0.1-0.3,1.4-4.6,1.9-4.5c0.1,0-0.2,0.6-0.1,0.7c0.2-0.8,0.5-1.5,0.8-2.4c-0.1,0.2-0.2,0.3-0.3,0.5c-0.1-0.1,2.1-5.2,2.4-6.1
		c-2.5,2.4-3.8,5.6-6.3,8.1c-1.6,1.6-2.8,4.6-4.1,6.8c-1.1,1.8-2.1,4.6-4.5,2.2c-0.7-0.6-1.1-1.4-1.2-2.4c-0.1-1,0.3-2,0.5-2.9
		c0.2-0.8,0-1.1,0.1-2.1c0.3-2.7,2.1-5.4,3-8c0.2-0.8,2.7-5.5,1.4-5.5c-0.2-0.1-1.3,1.5-1.5,1.7c-0.9,1.1-1.8,2.2-2.6,3.3
		c-2.5,3.9-4.1,7.7-6.2,11.8c-0.8,1.6-1.5,3.2-2.3,4.7c-0.3,0.8-0.8,1.4-1.1,2.2c0,0.2-0.1,0.8-0.2,1c-0.8,1.4-3.7-0.6-4.5-1.5
		c-1.6-1.9-1-3.6-1.1-5.8c-0.2-2.8,0.9-5.5,1.8-8.2c0.4-1.3,0.9-2.6,1.5-3.9c0.4-0.7,1-1.3,1.3-2.1c0.2-0.4-0.1-0.8,0.6-1.1
		c0.5-0.2,1.3,0.2,1.7,0.6c0.6,0.5,1,1.5,1.4,2c0.4,0.5,1.1,0.9,0.8,2c0,0.2-0.2,0.3-0.2,0.5c-0.5,0.8-1.1,1.4-1.7,2.2
		c-0.2,0.3-0.6,0.8-0.7,1.1c-0.2,0.5,0,0.8-0.2,1.3c-0.2,1.1-0.8,2-1.1,3c-0.2,0.7-0.5,1.5-0.5,2.2c0,0.8,0.3,1.4,0.2,2.2
		c1.1-1.8,1.7-4.1,2.7-6.1c1.2-2.4,2.4-5,3.9-7.4c1.2-1.9,2.7-3.7,3.9-5.7c1-1.6,2.7-3.9,4.6-4.1c2.7-0.4,4.9,3,4.3,5.4
		c-0.5,1.9-1.7,3.8-2.4,5.6c-0.9,2.7-1.7,5.4-2.4,8.1c0.9-1.9,2.1-3.7,3.3-5.6l-1.5,2.1c-0.1-0.5,6.2-8.7,7-9.5
		c2.1-2,6.4-4.1,7.5,0.1c1,3.6-0.9,7.9-2.2,11.2c-1.2,2.9-3,6.3-3.6,9.2c0.1-0.2,0.2-0.3,0.3-0.5c0,0-0.5,3.6,0.2,3.8
		c1.4,0.3,4.4-3.8,5.2-4.7c2.1-2.3,4-4.7,6-7.1c0.4-0.5,3.7-5,4.3-3.3c0.1,0.2,0,0.1,0,0.1C553.3,61.2,551.3,63.8,550.3,65.2z
		 M525.7,54.2L525.7,54.2c0.5-1.1,1.8-4.6,1.4-5.7c0.3,1.2-1.5,5.9-1.8,6.5c-0.8,1.7-1.7,3.5-2.3,5.3c-0.5,1.5-1.1,3.6-1.1,5.3
		c0.2-1.7,0.9-3.5,1.5-5c0.8-2.1,1.2-4.3,2.1-6.2C525.5,54.5,525.6,54.3,525.7,54.2L525.7,54.2L525.7,54.2z"/>
	<path class="st0" d="M574.7,62.2c-0.2,0-1.1,0.3-1.1,0.2c-0.8,0.3-0.6,0.2-1.1,0.9c-0.6,0.9-1.1,1.9-1.7,2.8
		c-0.3,0.3-3,4.3-3.6,4.1c0,0,0.6-0.8,0.5-0.8l-2.2,2.6c0.2-0.2,0.4-0.3,0.4-0.2c-0.5,1.3-3,2.8-4.1,3.6c-1.2,0.9-2.7,1.7-4.3,2
		c-1.5,0.2-3.2-0.2-4.6-0.8c-4.5-2.2-7.1-8.3-4.7-12.9c1.3-2.4,2.2-5.2,4-7.6c1.1-1.3,2.2-2.6,3.6-3.5c0.6-0.5,1.3-0.8,2.1-1.1
		c0.5-0.3,1.7-0.4,2.1-0.7c0.5-0.3,0.9-2.3,1.2-2.9c0.3-0.6,0.7-1.2,1.1-1.7c1.1-1.5,2.4-3,4-4c2.6-1.4,5.2,0,7.1,1.9
		c0,0,1.3,0.8,1.2,1.3l-0.3-0.3l0.3,0.6l0.1,0.1c-0.2-0.6,0.7,0.5,0.7,0.5c0.4,0.6,0.6,1.3,0.8,2c0.2,1.1,0.2,2.2,0,3.3
		c-0.3,2.8-1.1,5.7-2,8.4c2.3-0.4,4.6-0.9,6.8-1.4c0.5-0.2,1.1-0.5,1.4,0c0.1,0.2,0,0.1,0,0.1C584.5,61.4,575.6,62,574.7,62.2z
		 M567.6,62.4c-3.3-0.5-7.4-1.9-8.3-5.7c-0.5,0.6-1.6,2.4-2.7,4.7l0.5-0.7c-0.2,0.8-7.4,14.1-1.1,13.2h0.1
		C561.3,72.9,565.4,66.8,567.6,62.4z M571.2,45.3c-1.5-2.4-4.3,1.1-5.5,2.6c-0.1,0-0.1,0.1-0.1,0.1l-0.1,0.2V48
		c-0.1,0.2-0.2,0.2-0.1,0.2c-0.4,0.5-0.8,1-1.3,1.8c0.1-0.1,0.9-1.4,1-1.2c0.2,0.5-1.2,2.9-1.4,3.3c-0.5,1.2-0.8,2.4-1,3.7
		c-0.2,1.3-0.3,2.7,0.8,3.6c0.6,0.5,1.6,0.7,2.4,0.8c0.5,0.1,1.4,0.2,1.9,0.1c0.8-0.2,0.5,0.1,0.9-0.7c1.1-1.9,1.6-4.7,2.1-6.8
		C571.3,51,572.4,47.3,571.2,45.3z M565.8,47.9L565.8,47.9C565.7,48,565.8,48,565.8,47.9z"/>
	<path class="st0" d="M620.6,65.2c-1.9,2.7-3.8,5.5-5.9,8.1c-1.4,1.9-4.1,5.5-6.8,5.5c-0.5,0.1-3.7-1-3.6-1.6l0.1,0.1
		c-0.2-0.1-0.2-0.2-0.2-0.4c0,0.2-1.1-0.9-1.2-1.3c-0.5-0.8-0.7-1.8-0.8-2.7c-0.2-1.5-0.2-3-0.2-4.4c0-1.6,0.2-3,0.8-4.6
		c0.1-0.3,1.4-4.6,1.9-4.5c0.1,0-0.2,0.6-0.1,0.7c0.2-0.8,0.5-1.5,0.8-2.4c-0.1,0.2-0.2,0.3-0.3,0.5c-0.1-0.1,2.1-5.2,2.4-6.1
		c-2.5,2.4-3.8,5.6-6.3,8.1c-1.6,1.6-2.8,4.6-4.1,6.8c-1.1,1.8-2.1,4.6-4.5,2.2c-0.7-0.6-1.1-1.4-1.2-2.4c-0.1-1,0.3-2,0.5-2.9
		c0.2-0.8,0-1.1,0.1-2.1c0.3-2.7,2.1-5.4,3-8c0.2-0.8,2.7-5.5,1.4-5.5c-0.2-0.1-1.3,1.5-1.5,1.7c-0.9,1.1-1.8,2.2-2.6,3.3
		c-2.5,3.9-4.1,7.7-6.2,11.8c-0.8,1.6-1.5,3.2-2.3,4.7c-0.3,0.8-0.8,1.4-1.1,2.2c0,0.2-0.1,0.8-0.2,1c-0.8,1.4-3.7-0.6-4.5-1.5
		c-1.6-1.9-1-3.6-1.1-5.8c-0.2-2.8,0.9-5.5,1.8-8.2c0.4-1.3,0.9-2.6,1.5-3.9c0.4-0.7,1-1.3,1.3-2.1c0.2-0.4-0.1-0.8,0.6-1.1
		c0.5-0.2,1.3,0.2,1.7,0.6c0.6,0.5,1,1.5,1.4,2c0.4,0.5,1.1,0.9,0.8,2c0,0.2-0.2,0.3-0.2,0.5c-0.5,0.8-1.1,1.4-1.7,2.2
		c-0.2,0.3-0.6,0.8-0.7,1.1c-0.2,0.5,0,0.8-0.2,1.3c-0.2,1.1-0.8,2-1.1,3c-0.2,0.7-0.5,1.5-0.5,2.2c0,0.8,0.3,1.4,0.2,2.2
		c1.1-1.8,1.7-4.1,2.7-6.1c1.2-2.4,2.4-5,3.9-7.4c1.2-1.9,2.7-3.7,3.9-5.7c1-1.6,2.7-3.9,4.6-4.1c2.7-0.4,4.9,3,4.3,5.4
		c-0.5,1.9-1.7,3.8-2.4,5.6c-0.9,2.7-1.7,5.4-2.4,8.1c0.9-1.9,2.1-3.7,3.3-5.6l-1.5,2.1c-0.1-0.5,6.2-8.7,7-9.5
		c2.1-2,6.4-4.1,7.5,0.1c1,3.6-0.9,7.9-2.2,11.2c-1.2,2.9-3,6.3-3.6,9.2c0.1-0.2,0.2-0.3,0.3-0.5c0,0-0.5,3.6,0.2,3.8
		c1.4,0.3,4.4-3.8,5.2-4.7c2.1-2.3,4-4.7,6-7.1c0.4-0.5,3.7-5,4.3-3.3c0.1,0.2,0,0.1,0,0.1C623.7,61.2,621.6,63.8,620.6,65.2z
		 M596,54.2L596,54.2c0.5-1.1,1.8-4.6,1.4-5.7c0.3,1.2-1.5,5.9-1.8,6.5c-0.8,1.7-1.7,3.5-2.3,5.3c-0.5,1.5-1.1,3.6-1.1,5.3
		c0.2-1.7,0.9-3.5,1.5-5c0.8-2.1,1.2-4.3,2.1-6.2C595.9,54.5,595.9,54.3,596,54.2L596,54.2L596,54.2z"/>
	<path class="st0" d="M646.5,60.2l-2.4,3.1l-4.1,5.3c-1.1,1.4-2.4,2.7-3.4,4c-1.1,1.5-2.1,3.1-3.4,4.6c-1.4,1.4-3,3-4.8,4
		c-1.3,0.7-2.5,0.8-3.9,0.4c-2-0.5-3.7-1.7-5-3.3c-0.4-0.5-0.8-0.8-0.8-1.4c-0.1-0.5-0.2-1-0.2-1.5c-0.1-0.9,0.2-1.6,0.4-2.5
		c0.2-1,0.6-1.9,0.8-2.9c0.2-1.1,0.5-2.1,0.6-3c0.1-0.9-0.1-1.9,0.2-2.8c0.2-0.6,0.6-1.2,0.8-1.9c-0.2,0.5-0.6,0.9-0.7,1.3
		c-0.2,0.6-0.4,1.2-0.6,1.7c-0.2,0.6-0.3,1.1-0.5,1.7c-0.3,0.7-0.6,1.3-0.7,2.1c-0.1,0.7,0,1.4-0.1,2.1c-0.2,0.7-0.3,1.2-0.3,1.9
		c0,0.2,0.2,0.7,0.2,0.8c0,0.3-0.2,0.7-0.2,1.1c0,0.7,0.2,1.4,0.2,2.1c-1.2-2.1-1-4.3-0.6-6.5s0.7-4.5,1.2-6.7c1-4.5,3-8.9,5.9-12.5
		c2.4-3.1,5.5-5.5,9.6-4.7c1.5,0.3,3.2,1,4.2,2.3c1.1,1.4,1,3.3,0.5,4.9c-1,3-3.5,5.3-5.8,7.3c-1,0.8-2.1,1.7-3.2,2.4
		c-0.8,0.5-1.6,0.8-2.4,1.1l-1.3,0.5c-0.5,0.2-0.6,0.1-0.8,0.5c-0.4,0.8-0.2,1.5-0.3,2.3c-0.2,1-0.4,1.9-0.6,2.9
		c-0.4,1.8-1,4.2-0.5,6.1c0.8,3.9,7.2-2.1,8.4-3.2c0.8-0.7,1.4-1.4,2.1-2.1c0.4-0.5,0.8-0.8,1.1-1.3c0,0,0.2-0.4,0.2-0.5
		c0.9-1.4,2.1-2.8,3.3-4.2c1.4-1.6,2.6-3.3,3.9-5c0.7-1,2.3-3.8,3.5-1.7v0.1c0.1,0.1,0.1,0.1,0.1,0
		C647.1,59.4,646.8,59.7,646.5,60.2z M626.9,62c2.4-1.3,4.6-3,6.4-5.1l1.3-1.7c0.2-0.4,0.6-0.6,0.8-1.1c0.1-0.4-0.1-0.7,0-1.1
		l0.3-1.6c0.1-0.8-0.2-2.7-1.4-2.5c-0.5,0.2-1.1,0.8-1.4,1.2l-1.4,1.8c-1.6,2.4-2.4,4.9-3.6,7.4c0,0,0,0.1-0.1,0.2
		C627.5,60.3,627.3,61.2,626.9,62z"/>
	<path class="st0" d="M669.3,65c-1.7,2.1-3.2,4.4-5,6.4c-1.4,1.4-3.6,3.9-5.8,3.2c-0.5-0.2-3.3-1.7-3.2-2.1l0.2,0.2l-0.5-0.5
		c0.4,0.6-0.5-0.2-0.5-0.2c-0.4-0.4-0.7-1-0.9-1.4c-0.4-0.8-0.5-1.7-0.5-2.5s0.2-1.7,0.2-2.5c0.2-1.7,0.2-3.3,0.8-4.9
		c0.2-0.4,1.7-4.6,2.3-4.5c0.2,0-0.2,0.5-0.2,0.6l1.1-2.1c-0.2,0.2-0.2,0.3-0.4,0.4c-0.1-0.1,0.9-1.8,1.1-2.2
		c-1.5,1.7-2.7,3.6-4.1,5.4c-1,1.3-2.2,2.1-2.9,3.3c-1.6,2.7-3.6,5.2-4.9,8.1l-0.3-0.6c-1.4,1.7-3.4-0.3-4.2-1.6
		c-0.7-1.2-0.5-2.1-0.3-3.5c0.2-1.2,0.1-2.4,0.5-3.7c0.5-1.6,1.1-3.1,1.7-4.7c0.5-1.6,1.1-3.2,1.7-4.8c0.4-1,1.1-2.2,1.4-3.3
		c0.2-0.8,0-1.4,1-2c0.9-0.5,1.9-0.5,2.9-0.3c1.2,0.2,3.4,1.5,2.1,3.4c-0.5,0.7-1.4,1.4-2.1,2.2c-0.7,0.8-0.6,1.2-0.9,2.2
		c-0.2,0.6-0.8,1.1-1.1,1.7c-0.5,0.8-0.8,1.9-1.1,2.9c-0.2,0.6-0.1,1.1-0.2,1.7c-0.2,1.6-0.7,3.2-0.8,4.8c0.1-0.3,0.6-0.8,0.7-0.8
		s-0.8,1.4-0.7,1.4l4.5-6.5c-1,1.3-1.7,2.2-1.7,2.2c-0.2-0.2,8.8-11.7,9.9-12.7c2.2-2.1,5-2,6.1,1.6c1.2,3.8-2.7,6.3-4.6,9
		c-1,1.5-1.8,3.3-2.6,4.9c-0.5,1-1.7,3.2-1.8,4.9c0.2-1.1,1-2.5,1.3-3.3c0.6-1.6,1.4-2.9,2.7-4c-0.5,1-1.1,1.9-1.6,2.8l0.4-0.5
		c0.2,0-0.7,2.6-0.8,2.7c-0.3,0.9-0.6,1.9-0.7,2.9c-0.1,0.1,0,1.3,0,1.3l0.1,0.1c0-0.1,0.5-0.2,0.7-0.2c1.1-0.4,2.3-1.4,3.2-2.2
		c1.8-1.4,3.6-3,5.3-4.6c1.3-1.2,3-2.4,4-3.7c0.5-0.7,1.5-1.9,1.9-0.1C673,61.2,670.2,63.8,669.3,65z"/>
	<path class="st0" d="M698,38.1c0.1,1.1-1.2,1.9-2.1,2.1c-1,0.3-2.1-0.3-3-0.2c-0.5,0.2-0.4,0.4-0.8,0.5c-0.7,0.2-1.5,0.2-2.2,0.2
		c-1,0-3.1-0.5-4,0c-0.2,0.1-0.3,0.2-0.5,0.5l0.2-0.5c-0.5,0.1-1.2,2.1-1.7,3.5l0.8-1.7l-1.1,2.9c-0.8,1.6-1.4,3.3-2.1,4.9
		c-1.4,3.2-2.6,6.3-3.8,9.6c-2.1,5.9-4.1,12.2-5.5,18.3c-0.2,1.1-1.5,5.5-0.1,6.1c0.2,0.2,1.8-0.8,1.7-0.7c0.4-0.4,0.8-0.8,1.2-1.2
		c-0.3,0.2-1.1,0.9-1.1,0.8c-0.1-0.5,1.8-2,2.1-2.4c0.8-0.8,1.4-1.6,2.1-2.4l4.4-5.4c2.7-3.4,5.3-6.9,8.1-10.3c0.6-0.8,2-3.4,3-3.6
		c1.2-0.2,1.4,1,1.1,2c-0.7,2.1-2.7,3.7-3.8,5.5c-1.9,3.2-4.2,6.2-6.4,9.2c-2.4,3.3-4.9,6.5-7.5,9.6c-1.2,1.5-2.8,3.6-4.7,4.6
		c-1.4,0.7-3.3-0.2-4.6-1.1c-1.4-0.9-2.1-2.3-2.4-3.8c-0.1-0.5-0.5-2.9-0.1-3.4v1.1l0.2-1.5c-0.2,0.3-0.2-0.7-0.2-0.8
		c0-0.6,0.2-1.3,0.3-1.9c0.2-1.2,0.5-2.4,0.8-3.6c0.5-2.4,1.1-4.7,1.6-7.1c0.4-2.4,1.2-4.7,2-7c0.2-0.4,1.7-5,2.1-5
		c0.1,0-0.2,0.9-0.2,1c0.3-1.1,0.8-2.3,1.1-3.4c-0.2,0.4-0.4,0.8-0.4,0.6c0-0.9,1-2.5,1.3-3.3l0.9-2.7c0.8-2.4,1.7-4.9,2.7-7.1
		c-2.1,0.2-4.2,0-6.2,0.4c-2.9,0.5-6.5,0.2-9.4-0.2c-0.4-0.1-2.2-0.2-1.7-1c0.2-0.2,1.8-0.6,2.1-0.7c1.4-0.5,3-0.5,4.5-0.6
		c3-0.3,5.8-0.2,8.8-0.5c0.8-0.1,2.1,0.2,2.7-0.2c0.7-0.2,0.7-0.8,1-1.4c0.5-1.4,1.1-2.7,1.7-4c0.7-1.4,1.3-3,2.2-4.3
		c0.6-0.8,1.2-1.1,1.7-2c0.9-2.1,2-4.1,3.4-5.9c1.5-2,4.2-2.3,6.5-1.8c1.1,0.2,2.7,0.9,2.2,2.4c-0.2,0.6-1,1-1.4,1.4
		c0,0.1,0.7-0.7,0.7-0.4c-0.1,0.5-2.9,4.4-3.1,4.3c-0.1,0,1.1-1.9,1.1-2.1c-2.9,4.3-5.3,8.9-7.6,13.5c0.2,0,0.5-0.3,0.8-0.8
		c-0.2,0.5-0.4,0.8-0.4,0.8c3-0.2,6-0.2,9-0.3C696.8,37.8,698,36.9,698,38.1L698,38.1z M670.8,84.8c0.1,0.1,0.2,0.2,0.2,0.2
		L670.8,84.8z M693.5,23.4c-6.1,8.6-9.9,18.8-14.1,28.3c-2.5,5.5-4.6,11.3-6.3,17.2c-0.8,2.7-1.4,5.3-1.9,8.1l0.4-1.4
		c0.8-3.6,2.1-7.1,3.3-10.6c2.7-7.5,5.3-15.3,8.7-22.5C686.6,36,689.4,29.3,693.5,23.4z M680.9,51.1c-0.7,1.5-1.2,3-1.8,4.5
		c0.6-1.4,1.2-2.7,1.7-4.2C680.8,51.4,680.8,51.3,680.9,51.1z M688.4,35.4l-0.8,1.7C687.9,36.6,688.2,36,688.4,35.4z M690.4,31.4
		l-1.8,3.5C689.4,33.1,690.1,31.5,690.4,31.4z"/>
</g>
<g>
	<g>
		<path class="st1" d="M34.1,73.5c-3,6.3-8.3,9.8-14.7,9.8C6.5,83.3,0,71.3,0,45.3C0,20.2,6.9,7.6,20.4,7.6c4.6,0,10.7,3.3,13.7,9.9
			l-4.8,3.3c-3.5-6.3-7.2-7.2-9.9-7.2c-11.1,0-12.8,17-12.8,30.1c0,14.7,1.7,33.4,13.3,33.4c4.7,0,6.9-2.6,9-6.6L34.1,73.5z"/>
		<path class="st1" d="M49.3,45.7c0,2.7-2.2,4.9-4.9,4.9c-2.7,0-4.9-2.2-4.9-4.9c0-2.7,2.2-4.9,4.9-4.9C47,40.8,49.3,42.9,49.3,45.7
			z"/>
		<path class="st1" d="M86.4,70.8L69,51.9l-5.9,30.3H57L71.7,9h7.7L95,82.2h-6.4L86.4,70.8z M84.2,59.9l-8.6-41.5l-5.1,26.6
			L84.2,59.9z"/>
		<path class="st1" d="M112.4,45.7c0,2.7-2.2,4.9-4.9,4.9c-2.7,0-4.9-2.2-4.9-4.9c0-2.7,2.2-4.9,4.9-4.9
			C110.2,40.8,112.4,42.9,112.4,45.7z"/>
		<path class="st1" d="M146.4,36.1l-15.8,19.1v27h-6.4V9H141c9.3,0,13.7,4.2,13.7,10.7C154.7,25.8,152.4,28.7,146.4,36.1z
			 M142.6,32.1c4.5-5.5,5.5-7.6,5.5-11.5c0-3.8-2.4-5.4-7-5.4h-10.6v31.6L142.6,32.1z"/>
		<path class="st1" d="M170.1,45.7c0,2.7-2.2,4.9-4.9,4.9c-2.7,0-4.9-2.2-4.9-4.9c0-2.7,2.2-4.9,4.9-4.9
			C167.9,40.8,170.1,42.9,170.1,45.7z"/>
		<path class="st1" d="M195.3,15.1v67.1h-6.4V15.1h-13.1V9h32.5v6.1H195.3z"/>
		<path class="st1" d="M224,45.7c0,2.7-2.2,4.9-4.9,4.9c-2.7,0-4.9-2.2-4.9-4.9c0-2.7,2.2-4.9,4.9-4.9C221.7,40.8,224,42.9,224,45.7
			z"/>
		<path class="st1" d="M270.4,64.7c0,11.2-5.8,18.5-17.6,18.5c-11.5,0-17.8-6.5-17.8-17.9V9h6.4v55.5c0,9.3,4.8,12.8,12,12.8
			c6.1,0,10.6-3.5,10.6-12.8V9h6.4V64.7z"/>
		<path class="st1" d="M291.4,45.7c0,2.7-2.2,4.9-4.9,4.9c-2.7,0-4.9-2.2-4.9-4.9c0-2.7,2.2-4.9,4.9-4.9
			C289.2,40.8,291.4,42.9,291.4,45.7z"/>
		<path class="st1" d="M316.1,47.4l-6.5,7.8v27h-6.4V9H320c9.3,0,13.7,4.2,13.7,11.2c0,5.5-2.3,8.5-8.4,15.9l-4.7,5.8l16.5,38.4
			l-5.8,2.9L316.1,47.4z M309.6,46.7l12-14.6c4.5-5.5,5.5-7.6,5.5-11.5c0-3.8-2.4-5.4-7-5.4h-10.6V46.7z"/>
		<path class="st1" d="M353.7,45.7c0,2.7-2.2,4.9-4.9,4.9c-2.7,0-4.9-2.2-4.9-4.9c0-2.7,2.2-4.9,4.9-4.9
			C351.5,40.8,353.7,42.9,353.7,45.7z"/>
		<path class="st1" d="M365.5,9H388v6.1h-16.1v12.7h9.9v5.6h-9.9v42.7H388v6.2h-22.5V9z"/>
	</g>
</g>
</svg>
